<svg width="33" height="33" viewBox="0 0 33 33" fill="none" xmlns="http://www.w3.org/2000/svg">
<path d="M28.1742 6.65715C27.4971 5.9797 26.6931 5.44229 25.8082 5.07564C24.9233 4.70898 23.9749 4.52026 23.017 4.52026C22.0592 4.52026 21.1107 4.70898 20.2259 5.07564C19.341 5.44229 18.537 5.9797 17.8598 6.65715L16.4545 8.06246L15.0492 6.65715C13.6815 5.28938 11.8264 4.52097 9.89204 4.52097C7.95772 4.52097 6.10262 5.28938 4.73484 6.65715C3.36707 8.02493 2.59866 9.88003 2.59866 11.8143C2.59866 13.7487 3.36707 15.6038 4.73484 16.9715L16.4545 28.6912L28.1742 16.9715C28.8517 16.2944 29.3891 15.4904 29.7558 14.6055C30.1224 13.7207 30.3111 12.7722 30.3111 11.8143C30.3111 10.8565 30.1224 9.90805 29.7558 9.02316C29.3891 8.13827 28.8517 7.33429 28.1742 6.65715Z" stroke="currentColor" stroke-width="3" stroke-linecap="round" stroke-linejoin="round"/>
</svg>
