<svg width="33" height="33" viewBox="0 0 33 33" fill="none" xmlns="http://www.w3.org/2000/svg">
<path d="M9.82576 15.1287L15.1288 3.1969C16.1836 3.1969 17.1953 3.61593 17.9412 4.36182C18.687 5.1077 19.1061 6.11933 19.1061 7.17417V12.4772H26.6099C26.9942 12.4728 27.3749 12.5521 27.7256 12.7095C28.0762 12.8669 28.3885 13.0986 28.6407 13.3887C28.8929 13.6787 29.0791 14.0201 29.1863 14.3893C29.2934 14.7584 29.3191 15.1464 29.2614 15.5264L27.4318 27.4583C27.3359 28.0905 27.0148 28.6668 26.5275 29.081C26.0403 29.4952 25.4198 29.7193 24.7803 29.712H9.82576M9.82576 15.1287V29.712M9.82576 15.1287H5.84849C5.14527 15.1287 4.47084 15.4081 3.97359 15.9053C3.47633 16.4026 3.19698 17.077 3.19698 17.7802V27.0605C3.19698 27.7638 3.47633 28.4382 3.97359 28.9354C4.47084 29.4327 5.14527 29.712 5.84849 29.712H9.82576" stroke="currentColor" stroke-width="3" stroke-linecap="round" stroke-linejoin="round"/>
</svg>
