<svg width="38" height="38" viewBox="0 0 38 38" fill="none" xmlns="http://www.w3.org/2000/svg">
<path d="M6.50732 30.1279V26.9886H9.64655V16.0014C9.64655 13.8301 10.3006 11.9073 11.6086 10.233C12.9166 8.53261 14.617 7.42081 16.7098 6.8976V5.79888C16.7098 5.14487 16.9322 4.59551 17.3769 4.15078C17.8478 3.6799 18.4102 3.44446 19.0642 3.44446C19.7182 3.44446 20.2676 3.6799 20.7123 4.15078C21.1832 4.59551 21.4186 5.14487 21.4186 5.79888V6.8976C23.5115 7.42081 25.2119 8.53261 26.5199 10.233C27.8279 11.9073 28.4819 13.8301 28.4819 16.0014V26.9886H31.6211V30.1279H6.50732ZM19.0642 34.8367C18.2009 34.8367 17.4554 34.5358 16.8275 33.9342C16.2258 33.3063 15.925 32.5608 15.925 31.6975H22.2034C22.2034 32.5608 21.8895 33.3063 21.2617 33.9342C20.66 34.5358 19.9275 34.8367 19.0642 34.8367ZM12.7858 26.9886H25.3427V16.0014C25.3427 14.2748 24.7279 12.7967 23.4984 11.5672C22.2688 10.3377 20.7908 9.7229 19.0642 9.7229C17.3376 9.7229 15.8596 10.3377 14.6301 11.5672C13.4005 12.7967 12.7858 14.2748 12.7858 16.0014V26.9886Z" fill="currentColor"/>
</svg>
