<svg width="32" height="32" viewBox="0 0 32 32" fill="none" xmlns="http://www.w3.org/2000/svg">
<path d="M16.1406 9.71423C16.1406 8.33453 15.5925 7.01135 14.6169 6.03576C13.6413 5.06017 12.3181 4.51208 10.9384 4.51208H3.13521V24.0201H12.239C13.2737 24.0201 14.2661 24.4312 14.9978 25.1629C15.7295 25.8946 16.1406 26.887 16.1406 27.9217M16.1406 9.71423V27.9217M16.1406 9.71423C16.1406 8.33453 16.6886 7.01135 17.6642 6.03576C18.6398 5.06017 19.963 4.51208 21.3427 4.51208H29.1459V24.0201H20.0422C19.0074 24.0201 18.015 24.4312 17.2833 25.1629C16.5516 25.8946 16.1406 26.887 16.1406 27.9217" stroke="currentColor" stroke-width="2.5" stroke-linecap="round" stroke-linejoin="round"/>
</svg>
